<?xml version="1.0" standalone="no"?>
<!DOCTYPE svg PUBLIC "-//W3C//DTD SVG 20010904//EN"
 "http://www.w3.org/TR/2001/REC-SVG-20010904/DTD/svg10.dtd">
<svg version="1.0" xmlns="http://www.w3.org/2000/svg"
 width="831.000000pt" height="848.000000pt" viewBox="0 0 831.000000 848.000000"
 preserveAspectRatio="xMidYMid meet">

<g transform="translate(0.000000,848.000000) scale(0.100000,-0.100000)"
fill="#000000" stroke="none">
<path d="M215 8456 c-60 -19 -122 -62 -155 -108 -65 -89 -60 251 -58 -4133 l3
-3990 29 -58 c19 -39 44 -71 78 -98 96 -76 -286 -69 4058 -67 l3905 3 57 28
c69 34 121 91 148 164 20 54 20 67 18 4051 l-3 3997 -29 58 c-34 66 -79 110
-145 141 l-46 21 -3910 2 c-3121 1 -3918 -1 -3950 -11z m7856 -161 c16 -9 39
-30 49 -48 20 -32 20 -82 20 -4012 0 -3930 0 -3980 -20 -4012 -10 -18 -33 -39
-49 -48 -27 -13 -428 -15 -3923 -15 -3843 0 -3893 0 -3925 20 -18 10 -39 33
-48 49 -13 27 -15 436 -15 4006 0 3570 2 3979 15 4006 9 16 30 39 48 49 32 20
82 20 3925 20 3495 0 3896 -2 3923 -15z"/>
<path d="M3846 6825 c-3 -10 -19 -15 -44 -15 -21 0 -87 -9 -148 -20 -343 -62
-620 -174 -889 -358 -60 -42 -112 -78 -115 -81 -3 -3 -38 -32 -77 -65 -40 -32
-122 -109 -183 -172 -303 -316 -520 -746 -589 -1166 -6 -38 -17 -98 -23 -135
-16 -85 -16 -450 -1 -518 7 -27 17 -86 24 -130 51 -344 223 -728 454 -1020
136 -172 373 -385 575 -517 197 -128 478 -241 727 -293 285 -60 676 -62 938
-6 80 17 241 61 300 82 216 76 515 242 670 373 28 23 56 46 63 50 12 7 69 -43
283 -251 53 -51 101 -93 106 -93 5 0 97 91 204 201 107 111 209 215 226 233
l33 31 -201 202 -201 201 32 58 c104 187 176 358 229 548 122 434 94 1009 -69
1401 -7 17 -16 39 -21 50 -29 74 -127 265 -175 340 -284 454 -736 805 -1239
962 -133 42 -373 92 -441 93 -24 0 -47 6 -54 15 -10 12 -46 15 -200 15 -158 0
-189 -2 -194 -15z m-107 -719 c-11 -9 -69 -15 -64 -6 3 6 20 10 37 10 17 0 29
-2 27 -4z m-94 -26 c-27 -12 -35 -12 -35 0 0 6 12 10 28 9 24 0 25 -1 7 -9z
m-45 -9 c0 -5 -10 -11 -22 -14 -45 -10 -128 -42 -128 -49 0 -3 6 -8 13 -11 6
-2 2 -2 -11 0 -12 2 -39 -5 -60 -15 -20 -11 -49 -22 -63 -25 -31 -8 -101 -62
-111 -85 -6 -15 -7 -15 -7 1 -1 17 -3 17 -30 -2 -16 -12 -34 -21 -39 -21 -16
0 -20 -23 -10 -44 7 -13 7 -16 -1 -12 -6 4 -11 1 -11 -7 0 -18 31 -32 39 -18
3 5 17 11 31 12 14 2 25 11 25 19 0 8 9 23 19 33 26 23 33 22 11 -3 -10 -11
-13 -20 -7 -20 6 0 19 11 30 25 11 13 22 22 24 19 3 -2 49 18 102 46 53 27
105 50 117 50 11 0 17 4 14 10 -3 5 0 7 8 4 8 -3 18 -1 22 5 3 6 17 11 30 11
13 0 26 4 29 9 3 5 23 11 43 14 21 3 72 12 113 21 41 8 117 18 168 22 108 8
110 5 62 -78 -25 -46 -35 -54 -82 -69 -29 -10 -60 -18 -69 -18 -9 -1 -45 -10
-80 -21 -93 -30 -92 -30 -87 -36 3 -2 25 2 49 10 24 8 82 22 128 32 142 28
221 6 428 -122 166 -102 216 -147 226 -205 7 -34 -10 -250 -24 -319 -20 -99
-60 -189 -104 -235 -43 -44 -138 -97 -319 -177 -131 -58 -332 -128 -368 -128
-17 0 -54 13 -82 29 -54 31 -241 178 -309 242 l-40 38 6 98 c6 95 15 167 38
303 6 36 14 88 18 115 9 61 28 99 75 148 40 41 37 47 -9 19 -46 -28 -110 -45
-142 -39 -117 24 -133 32 -133 69 0 15 5 28 10 28 18 0 11 25 -11 38 -17 11
-18 16 -8 28 6 8 9 18 5 22 -4 4 -16 -3 -26 -15 -10 -13 -26 -23 -35 -23 -9 0
-13 -4 -10 -10 3 -5 2 -10 -3 -10 -5 0 -38 -27 -72 -60 -34 -33 -66 -60 -71
-60 -5 0 -9 -4 -9 -9 0 -6 -13 -25 -30 -43 -16 -18 -30 -36 -30 -40 0 -5 -7
-8 -16 -8 -9 0 -12 -5 -8 -12 4 -7 3 -8 -4 -4 -7 4 -12 1 -12 -6 -1 -18 -49
-72 -58 -64 -3 4 -2 10 4 14 5 4 18 20 28 36 42 66 219 250 286 298 25 18 47
35 50 38 33 39 284 172 410 216 72 25 90 28 90 15z m-257 -158 c-7 -2 -19 -2
-25 0 -7 3 -2 5 12 5 14 0 19 -2 13 -5z m-43 -12 c0 -5 -10 -11 -22 -14 -22
-6 -22 -6 -4 8 23 17 26 18 26 6z m1666 -150 c300 -211 527 -567 610 -956 9
-45 22 -75 34 -85 45 -34 34 -335 -19 -540 -49 -190 -95 -296 -209 -487 -94
-156 -101 -164 -217 -266 -282 -249 -497 -361 -800 -418 -92 -17 -421 -18
-495 0 -341 78 -509 153 -537 239 -5 15 -10 61 -12 102 -2 70 0 78 30 123 41
63 104 109 266 197 211 114 227 116 453 70 102 -21 133 -29 290 -72 120 -32
131 -35 202 -56 l67 -20 67 126 c71 137 221 374 306 487 81 106 111 121 328
165 58 12 109 25 114 30 16 16 -63 22 -145 11 -103 -14 -180 -14 -216 0 -57
21 -470 454 -515 540 -21 40 -23 56 -23 194 0 204 15 424 31 456 7 14 28 37
46 51 42 32 255 157 269 158 3 0 37 -22 75 -49z m-1899 -18 c-3 -10 -5 -4 -5
12 0 17 2 24 5 18 2 -7 2 -21 0 -30z m30 -5 c-3 -7 -5 -2 -5 12 0 14 2 19 5
13 2 -7 2 -19 0 -25z m-386 -326 c-12 -17 -21 -33 -21 -37 0 -4 -9 -20 -21
-36 -11 -16 -17 -29 -12 -29 4 0 3 -4 -4 -8 -6 -4 -23 -32 -37 -62 -14 -30
-26 -49 -26 -43 0 18 61 147 72 151 4 2 8 8 8 13 0 14 52 90 58 85 2 -3 -5
-18 -17 -34z m667 -553 c195 -146 294 -239 312 -294 38 -118 80 -445 80 -620
0 -79 -3 -97 -23 -126 -24 -36 -94 -93 -155 -126 -20 -11 -66 -37 -102 -57
-90 -51 -145 -75 -188 -82 -32 -5 -49 2 -120 44 -110 67 -350 239 -383 275
-15 16 -34 52 -43 81 -28 90 -55 325 -62 526 -8 261 -15 249 202 348 73 33
322 130 337 131 5 1 70 -45 145 -100z m-743 -90 c10 -15 24 -149 35 -324 5
-82 20 -225 33 -317 12 -91 21 -171 19 -177 -7 -22 -31 -10 -46 22 -22 46 -75
217 -88 279 -12 58 -23 468 -13 505 6 24 48 33 60 12z m3720 -1797 c-3 -3 -11
0 -18 7 -9 10 -8 11 6 5 10 -3 15 -9 12 -12z m-57 -42 c-7 -10 -14 -17 -17
-15 -4 4 18 35 25 35 2 0 -1 -9 -8 -20z m-178 -209 c0 -3 -10 -12 -22 -20 -21
-13 -22 -13 -10 2 8 9 11 21 7 26 -3 7 0 8 9 5 9 -3 16 -9 16 -13z m-105 -90
c-7 -22 -25 -29 -25 -11 0 12 23 40 28 35 2 -2 1 -13 -3 -24z m-59 -76 c-18
-19 -33 -20 -17 -2 6 8 8 17 4 20 -3 4 -1 7 5 7 7 0 11 3 11 8 -3 19 4 24 8 4
2 -12 -2 -29 -11 -37z m-52 -10 c3 -8 1 -15 -4 -15 -6 0 -10 7 -10 15 0 8 2
15 4 15 2 0 6 -7 10 -15z"/>
<path d="M3597 5793 c-26 -14 -46 -27 -44 -30 3 -2 31 10 63 26 33 17 52 30
44 30 -8 0 -37 -12 -63 -26z"/>
<path d="M3459 5713 c-13 -15 -12 -15 9 -4 23 12 28 21 13 21 -5 0 -15 -7 -22
-17z"/>
</g>
</svg>
